<svg width="101" height="156" viewBox="0 0 101 156" fill="none" xmlns="http://www.w3.org/2000/svg">
<path d="M28.6421 25.5655L43.7247 16.8715C46.4978 15.2731 46.4978 11.2712 43.7248 9.67277L28.6421 0.978543C26.3787 -0.326186 23.59 -0.326186 21.3265 0.978543L6.24411 9.67278C3.47114 11.2713 3.47117 15.2731 6.24416 16.8715L21.3265 25.5655C23.59 26.8702 26.3787 26.8702 28.6421 25.5655Z" transform="translate(0.701172 101.971) scale(2)" fill="#4789A5"/>
<path fill-rule="evenodd" clip-rule="evenodd" d="M1.10558 17.1166L7.90582 13.1904C8.15758 13.045 8.28355 12.7907 8.28355 12.5364V7.04974e-07L-1.76244e-06 4.78255V17.4128C0.381699 17.4128 0.763586 17.3141 1.10558 17.1166Z" transform="translate(50.6699 72.5508) scale(4.16667)" fill="url(#paint0_linear)"/>
<path fill-rule="evenodd" clip-rule="evenodd" d="M0.377552 13.1904L7.17797 17.1166C7.51997 17.3141 7.90184 17.4128 8.28355 17.4128V4.78255L2.8199e-06 7.04974e-07V12.5364C2.8199e-06 12.7907 0.125791 13.045 0.377552 13.1904Z" transform="translate(16.1543 72.5508) scale(4.16667)" fill="url(#paint1_linear)"/>
<path d="M0.377507 5.53056L7.17793 9.45676C7.8621 9.85163 8.70491 9.85163 9.38909 9.45676L16.1893 5.53056C16.6928 5.23982 16.6928 4.51305 16.1893 4.22249L9.38909 0.296292C8.70491 -0.098764 7.8621 -0.098764 7.17793 0.296292L0.377507 4.22249C-0.125834 4.51305 -0.125834 5.23982 0.377507 5.53056Z" transform="translate(16.1543 52.2305) scale(4.16667)" fill="white"/>
<path d="M5.58034 -4.19358e-06C2.49852 -4.19358e-06 3.49465e-07 1.61356 3.49465e-07 3.60393V10.0746C3.49465e-07 12.065 2.49852 13.6785 5.58034 13.6785C8.66216 13.6785 11.1607 12.065 11.1607 10.0746V3.60393C11.1607 1.61356 8.66216 -4.19358e-06 5.58034 -4.19358e-06Z" transform="translate(39.5703 49.8379) scale(2)" fill="#40315C"/>
<path d="M9.17396 28.0642C9.17396 24.7848 0.187936 22.5228 0.00292617 12.5928C-0.16598 3.52091 7.01145 -1.39786e-06 13.5981 -1.39786e-06C20.1847 -1.39786e-06 27.3621 3.81399 27.3621 12.5928C27.3621 21.3716 18.2938 24.3991 18.2938 28.0642C18.2938 31.7289 9.17396 31.3432 9.17396 28.0642Z" transform="translate(23.5352 0.138672) scale(2)" fill="#F7CE62"/>
<defs>
<linearGradient id="paint0_linear" x2="1" gradientUnits="userSpaceOnUse" gradientTransform="translate(6.4534 2.1235) scale(10.4708) rotate(60.7247)">
<stop stop-color="#D6D7D2"/>
<stop offset="1" stop-color="white"/>
</linearGradient>
<linearGradient id="paint1_linear" x2="1" gradientUnits="userSpaceOnUse" gradientTransform="translate(11.8093 3.46772) scale(12.5209) rotate(103.268)">
<stop stop-color="#D6D7D2"/>
<stop offset="1" stop-color="white"/>
</linearGradient>
</defs>
</svg>
