<svg width="77" height="63" viewBox="0 0 77 63" fill="none" xmlns="http://www.w3.org/2000/svg">
<path fill-rule="evenodd" clip-rule="evenodd" d="M0.637664 35.13C0.626973 35.3892 0.621591 35.6493 0.621591 35.9103C0.621591 50.5633 17.5854 62.4419 38.5114 62.4419C59.4373 62.4419 76.4012 50.5633 76.4012 35.9103C76.4012 35.904 76.4012 35.8976 76.4012 35.8913V26.0549H75.869C72.8425 13.5236 57.2686 3.97949 38.5114 3.97949C19.7541 3.97949 4.18027 13.5236 1.15371 26.0549H0.637664V29.7306C0.626967 29.9898 0.621582 30.25 0.621582 30.5111C0.621582 30.7722 0.626967 31.0324 0.637664 31.2916V35.13Z" fill="url(#paint0_linear)"/>
<ellipse cx="38.5114" cy="27.2259" rx="37.8898" ry="26.5316" fill="url(#paint1_linear)"/>
<ellipse cx="38.5115" cy="27.2257" rx="32.5032" ry="21.8976" fill="#FFE76B"/>
<path d="M38.5113 3.78223C22.1412 3.78223 8.01215 11.7647 4.91729 22.7617C4.754 23.3392 5.30609 23.8987 6.14901 24.0095C7.00593 24.1225 7.80842 23.742 7.97016 23.1655C9.07435 19.2388 11.7431 15.7468 15.46 12.939L16.5176 13.6636C16.8224 13.8703 17.2205 13.9747 17.6171 13.9747C18.0137 13.9747 18.4134 13.8703 18.7166 13.6625C19.3247 13.2458 19.3247 12.5713 18.7166 12.1547L17.6653 11.4354C23.2314 7.99136 30.5719 5.91343 38.5113 5.91343C46.5268 5.91343 53.8269 8.01587 59.3479 11.4407L58.3044 12.1547C57.6963 12.5713 57.6963 13.2458 58.3044 13.6625C58.6076 13.8703 59.0057 13.9747 59.4039 13.9747C59.802 13.9747 60.2001 13.8703 60.5034 13.6636L61.5516 12.9464C66.225 16.4831 69.211 21.0866 69.5765 26.161H64.9497C64.0897 26.161 63.3945 26.6383 63.3945 27.2266C63.3945 27.8148 64.0897 28.2922 64.9497 28.2922H71.1706C72.0306 28.2922 72.7258 27.8148 72.7258 27.2266C72.7258 14.2987 57.3774 3.78223 38.5113 3.78223Z" fill="#AAA8AA"/>
<path d="M70.8736 30.4417C70.0229 30.3309 69.2158 30.7092 69.0525 31.2857C67.9483 35.2125 65.2795 38.7044 61.5626 41.5123L60.5051 40.7877C59.897 40.3721 58.9141 40.3721 58.306 40.7877C57.6979 41.2033 57.6979 41.8789 58.306 42.2955L59.3573 43.0148C54.1583 46.2329 47.4056 48.2395 40.0666 48.4909V45.341C40.0666 44.7528 39.3714 44.2754 38.5114 44.2754C37.6513 44.2754 36.9562 44.7528 36.9562 45.341V48.4856C29.5549 48.2331 22.8334 46.2116 17.6747 43.0105L18.7183 42.2966C19.3264 41.8799 19.3264 41.2054 18.7183 40.7888C18.1102 40.3721 17.1273 40.3732 16.5192 40.7888L15.471 41.5059C10.7961 37.9692 7.81164 33.3658 7.44461 28.2914H12.0729C12.9329 28.2914 13.6281 27.814 13.6281 27.2258C13.6281 26.6375 12.9329 26.1602 12.0729 26.1602H5.85208C4.99205 26.1602 4.29688 26.6375 4.29688 27.2258C4.29688 40.1526 19.6452 50.669 38.5114 50.669C54.8815 50.669 69.0105 42.6866 72.1053 31.6896C72.2686 31.112 71.7165 30.5536 70.8736 30.4417Z" fill="#AAA8AA"/>
<path d="M52.5625 18.1143L44.5822 30.4246L35.0073 23.8286L52.5625 18.1143Z" fill="#E12726" stroke="black" stroke-width="2" stroke-linecap="round" stroke-linejoin="round"/>
<path d="M26.6531 36.3367L34.9435 23.8563L44.5834 30.4434L26.6531 36.3367Z" fill="#E12726" stroke="black" stroke-width="2" stroke-linecap="round" stroke-linejoin="round"/>
<path d="M51.794 16.5771L43.8136 28.8875L34.2388 22.2915L51.794 16.5771Z" fill="#E12726" stroke="#AB0B11" stroke-width="2" stroke-linecap="round" stroke-linejoin="round"/>
<path d="M25.8845 34.7996L34.1749 22.3192L43.8148 28.9063L25.8845 34.7996Z" fill="#E12726" stroke="#AB0B11" stroke-width="2" stroke-linecap="round" stroke-linejoin="round"/>
<path d="M36.9561 13.3729V11.6829L40.5222 14.1263C40.8192 14.3298 41.2174 14.4385 41.6217 14.4385C41.8223 14.4385 42.0245 14.4119 42.2174 14.3576C42.799 14.1924 43.1769 13.8034 43.1769 13.3729V9.11053C43.1769 8.52231 42.4818 8.04492 41.6217 8.04492C40.7617 8.04492 40.0665 8.52231 40.0665 9.11053V10.8006L36.5004 8.35714C36.0557 8.05238 35.3885 7.96181 34.8053 8.12591C34.2236 8.29108 33.8457 8.68002 33.8457 9.11053V13.3729C33.8457 13.9612 34.5409 14.4385 35.4009 14.4385C36.2609 14.4385 36.9561 13.9612 36.9561 13.3729Z" fill="#8A8A8A"/>
<defs>
<linearGradient id="paint0_linear" x1="0.621583" y1="38.1665" x2="76.4012" y2="33.2107" gradientUnits="userSpaceOnUse">
<stop stop-color="#D6D7D2"/>
<stop offset="1" stop-color="#D6D7D2"/>
</linearGradient>
<linearGradient id="paint1_linear" x1="0.621581" y1="25.5051" x2="77.8799" y2="27.2259" gradientUnits="userSpaceOnUse">
<stop stop-color="white"/>
<stop offset="1" stop-color="#D7D8D2"/>
</linearGradient>
</defs>
</svg>
