<?xml version="1.0" encoding="UTF-8" standalone="no"?>
<!DOCTYPE svg PUBLIC "-//W3C//DTD SVG 1.1//EN" "http://www.w3.org/Graphics/SVG/1.1/DTD/svg11.dtd">
<svg width="100%" height="100%" viewBox="0 0 144 210" version="1.1" xmlns="http://www.w3.org/2000/svg" xmlns:xlink="http://www.w3.org/1999/xlink" xml:space="preserve" xmlns:serif="http://www.serif.com/" style="fill-rule:evenodd;clip-rule:evenodd;stroke-linejoin:round;stroke-miterlimit:1.41421;">
    <path d="M21.848,99.727C21.834,99.25 21.827,98.772 21.827,98.293L21.827,53.951C21.827,26.338 44.277,3.951 71.892,3.951C99.506,3.951 121.956,26.338 121.956,53.951L121.956,98.293C121.956,98.772 121.949,99.25 121.936,99.727L130.749,99.727C135.165,99.727 138.749,103.312 138.749,107.727L138.749,196.21C138.749,200.625 135.164,204.21 130.749,204.21L11.17,204.21C6.755,204.21 3.17,200.625 3.17,196.21L3.17,107.727C3.17,103.312 6.754,99.727 11.17,99.727L21.848,99.727ZM107.99,99.727C109.202,96.129 109.859,92.276 109.859,88.27L109.859,56.602C109.859,36.797 93.805,20.742 74,20.742C54.195,20.742 38.141,36.797 38.141,56.602L38.141,88.27C38.141,92.276 38.798,96.129 40.01,99.727L107.99,99.727Z" style="fill:white;"/>
    <g transform="matrix(1,0,0,1,0.795898,0.265625)">
        <path d="M128.393,95.106L128.393,57.064C128.393,25.679 102.714,0 71.329,0C39.945,0 14.266,25.679 14.266,57.064L14.266,95.106C6.182,95.106 0,101.288 0,109.372L0,194.967C0,203.051 6.182,209.233 14.266,209.233L128.393,209.233C136.477,209.233 142.659,203.051 142.659,194.967L142.659,109.372C142.659,101.288 136.477,95.106 128.393,95.106ZM128.393,199.722L14.266,199.722C11.413,199.722 9.511,197.82 9.511,194.967L9.511,190.212L19.021,190.212C21.874,190.212 23.776,188.31 23.776,185.456C23.776,182.603 21.874,180.701 19.021,180.701L9.511,180.701L9.511,123.638L19.021,123.638C21.874,123.638 23.776,121.735 23.776,118.882C23.776,116.029 21.874,114.127 19.021,114.127L9.511,114.127L9.511,109.372C9.511,106.519 11.413,104.616 14.266,104.616L104.616,104.616C107.47,104.616 109.372,102.714 109.372,99.861L109.372,57.064C109.372,36.14 92.253,19.021 71.329,19.021C50.406,19.021 33.287,36.14 33.287,57.064L33.287,80.84C33.287,83.693 35.189,85.595 38.042,85.595C40.896,85.595 42.798,83.693 42.798,80.84L42.798,57.064C42.798,41.371 55.637,28.532 71.329,28.532C87.022,28.532 99.861,41.371 99.861,57.064L99.861,95.106L23.776,95.106L23.776,57.064C23.776,30.909 45.175,9.511 71.329,9.511C97.484,9.511 118.882,30.909 118.882,57.064L118.882,99.861C118.882,102.714 120.784,104.616 123.638,104.616L128.393,104.616C131.246,104.616 133.148,106.519 133.148,109.372L133.148,114.127L123.638,114.127C120.784,114.127 118.882,116.029 118.882,118.882C118.882,121.735 120.784,123.638 123.638,123.638L133.148,123.638L133.148,180.701L123.638,180.701C120.784,180.701 118.882,182.603 118.882,185.456C118.882,188.31 120.784,190.212 123.638,190.212L133.148,190.212L133.148,194.967C133.148,197.82 131.246,199.722 128.393,199.722Z" style="fill:rgb(50,72,90);fill-rule:nonzero;"/>
    </g>
    <g transform="matrix(0.808302,0,0,0.808302,52.5112,119.309)">
        <path d="M40.428,42.332L33.758,34.882L29.497,38.696L30.624,44.302L40.428,42.332Z" style="fill:rgb(50,72,89);"/>
    </g>
    <g transform="matrix(0.808302,0,0,0.808302,52.5112,119.309)">
        <path d="M8.774,42.93L18.652,44.492L19.541,38.87L15.161,35.235L8.774,42.93Z" style="fill:rgb(50,72,89);"/>
    </g>
    <g>
        <path d="M72.207,111.226C87.458,111.274 99.806,123.652 99.806,138.915L99.805,139.011C99.784,145.408 97.586,151.3 93.926,155.974L99.163,182.044L91.171,183.65L99.164,182.049C100.266,187.546 96.063,192.687 90.446,192.687L55.71,192.687L55.646,192.687C50.206,192.649 46.079,187.775 46.928,182.408L54.9,183.668L46.928,182.407L50.979,156.799C46.899,151.979 44.428,145.732 44.428,138.915C44.428,123.622 56.825,111.226 72.117,111.226L72.207,111.226ZM72.043,127.392C65.713,127.432 60.594,132.575 60.594,138.915L60.595,138.998C60.619,142.529 62.224,145.679 64.766,147.789L59.604,154.009L67.587,155.272L64.226,176.521L81.565,176.521L77.264,155.118L85.189,153.526L79.798,147.504C82.167,145.382 83.639,142.325 83.639,138.915C83.639,132.55 78.481,127.392 72.117,127.392L72.043,127.392Z" style="fill:rgb(50,72,89);"/>
    </g>
    <g transform="matrix(0.725564,0,0,0.725564,54.4357,121.665)">
        <path d="M40.428,42.332C45.389,37.891 48.511,31.438 48.511,24.256C48.511,10.859 37.651,0 24.256,0C10.859,0 0,10.859 0,24.256C0,31.766 3.414,38.481 8.774,42.93L2.97,79.625C2.874,80.231 3.343,80.781 3.958,80.781L46.932,80.781C47.563,80.781 48.036,80.203 47.912,79.584L40.428,42.332Z" style="fill:rgb(240,240,240);"/>
    </g>
</svg>
