<svg width="84" height="80" viewBox="0 0 84 80" fill="none" xmlns="http://www.w3.org/2000/svg">
<path fill-rule="evenodd" clip-rule="evenodd" d="M83.1319 55.9442C83.1314 55.9542 83.1308 55.9643 83.1301 55.9744C83.0687 56.9575 82.3313 58.0021 80.9181 58.8009L46.6926 78.5251C43.9889 80.0613 39.872 80.2456 37.5371 78.8938L2.02119 58.3708C0.927666 57.7025 0.434792 56.8541 0.48317 55.9442H0.479919V42.6283H20.8441L36.9226 33.3622C39.6263 31.826 43.7431 31.6417 46.0781 32.9935L62.7225 42.6283H83.1348V55.8298C83.1348 55.8341 83.1348 55.8384 83.1348 55.8427V55.9442H83.1319Z" fill="url(#paint0_linear)"/>
<path d="M0.485035 44.3182C0.546481 43.3351 1.28384 42.2905 2.6971 41.4917L36.9226 21.7675C39.6263 20.2313 43.7431 20.047 46.0781 21.3988L81.5325 41.9218C82.6386 42.5977 83.1916 43.458 83.1301 44.3797C83.0687 45.3628 82.3313 46.4074 80.9181 47.2062L46.6926 66.9304C43.9889 68.4666 39.872 68.6509 37.5371 67.2991L2.02119 46.7761C0.915159 46.1002 0.423589 45.2399 0.485035 44.3182Z" fill="white"/>
<mask id="mask0" mask-type="alpha" maskUnits="userSpaceOnUse" x="0" y="20" width="84" height="49">
<path d="M0.485035 44.3182C0.546481 43.3351 1.28384 42.2905 2.6971 41.4917L36.9226 21.7675C39.6263 20.2313 43.7431 20.047 46.0781 21.3988L81.5325 41.9218C82.6386 42.5977 83.1916 43.458 83.1301 44.3797C83.0687 45.3628 82.3313 46.4074 80.9181 47.2062L46.6926 66.9304C43.9889 68.4666 39.872 68.6509 37.5371 67.2991L2.02119 46.7761C0.915159 46.1002 0.423589 45.2399 0.485035 44.3182Z" fill="white"/>
</mask>
<g mask="url(#mask0)">
<path d="M0.479946 26.8115H42.8193V52.6802H0.479946V26.8115Z" fill="url(#paint1_linear)"/>
</g>
<path d="M65.2959 13.9277V39.6995L42.8182 52.6823V26.9105L65.2959 13.9277Z" fill="#ECB629"/>
<path d="M20.4386 13.9277V39.6995L42.8193 52.6823V26.9105L20.4386 13.9277Z" fill="#FFE76B"/>
<path d="M65.2959 13.9271L42.8182 0.944336L20.4375 13.9271L42.8182 26.9099L65.2959 13.9271Z" fill="#DAA008"/>
<defs>
<linearGradient id="paint0_linear" x1="83.1348" y1="87.1485" x2="0.479929" y2="86.0523" gradientUnits="userSpaceOnUse">
<stop offset="0.0331492" stop-color="white"/>
<stop offset="0.41989" stop-color="#F6F6F5"/>
<stop offset="0.524862" stop-color="#E7E7E4"/>
<stop offset="1" stop-color="#D9DAD4"/>
</linearGradient>
<linearGradient id="paint1_linear" x1="42.8193" y1="39.7459" x2="-1.63186" y2="39.7459" gradientUnits="userSpaceOnUse">
<stop stop-color="#BCC0E5"/>
<stop offset="1" stop-color="white" stop-opacity="0"/>
</linearGradient>
</defs>
</svg>
