<svg width="36" height="31" viewBox="0 0 36 31" fill="none" xmlns="http://www.w3.org/2000/svg">
<rect width="34.479" height="29.7773" fill="black" fill-opacity="0" transform="translate(0.834961 0.546875)"/>
<rect width="34.479" height="29.7773" fill="black" fill-opacity="0" transform="translate(0.834961 0.546875)"/>
<path d="M11.8063 8.38363H24.3441C24.8143 8.38363 25.1278 8.07019 25.1278 7.60002C25.1278 7.12985 24.8143 6.81641 24.3441 6.81641H11.8063C11.3362 6.81641 11.0227 7.12985 11.0227 7.60002C11.0227 8.07019 11.3362 8.38363 11.8063 8.38363Z" fill="black"/>
<path d="M11.8063 12.3016H19.6425C20.1126 12.3016 20.4261 11.9882 20.4261 11.518C20.4261 11.0478 20.1126 10.7344 19.6425 10.7344H11.8063C11.3362 10.7344 11.0227 11.0478 11.0227 11.518C11.0227 11.9882 11.3362 12.3016 11.8063 12.3016Z" fill="black"/>
<path d="M11.8063 16.2196H22.7769C23.2471 16.2196 23.5605 15.9061 23.5605 15.436C23.5605 14.9658 23.2471 14.6523 22.7769 14.6523H11.8063C11.3362 14.6523 11.0227 14.9658 11.0227 15.436C11.0227 15.9061 11.3362 16.2196 11.8063 16.2196Z" fill="black"/>
<path d="M32.9632 0.546875H3.1858C1.85366 0.546875 0.834961 1.56557 0.834961 2.89772V20.1372C0.834961 21.4694 1.85366 22.4881 3.1858 22.4881H6.32026C6.79043 22.4881 7.10388 22.1746 7.10388 21.7045C7.10388 21.2343 6.79043 20.9208 6.32026 20.9208H3.1858C2.71564 20.9208 2.40219 20.6074 2.40219 20.1372V2.89772C2.40219 2.42755 2.71564 2.1141 3.1858 2.1141H32.9632C33.4333 2.1141 33.7468 2.42755 33.7468 2.89772V20.1372C33.7468 20.6074 33.4333 20.9208 32.9632 20.9208H17.4476C16.1938 20.9208 14.94 21.391 13.9213 22.1746L7.10388 27.895V24.8389C7.10388 24.3688 6.79043 24.0553 6.32026 24.0553C5.85009 24.0553 5.53665 24.3688 5.53665 24.8389V29.5406C5.53665 29.8541 5.69337 30.0891 6.00682 30.2459C6.08518 30.3242 6.2419 30.3242 6.32026 30.3242C6.47698 30.3242 6.71207 30.2459 6.79043 30.1675L14.94 23.4284C15.6453 22.8799 16.5072 22.4881 17.4476 22.4881H32.9632C34.2953 22.4881 35.314 21.4694 35.314 20.1372V2.89772C35.314 1.56557 34.2953 0.546875 32.9632 0.546875Z" fill="black"/>
</svg>
